<?xml version="1.0" encoding="utf-8"?>
<!-- Generator: Adobe Illustrator 26.3.1, SVG Export Plug-In . SVG Version: 6.00 Build 0)  -->
<svg version="1.1" xmlns="http://www.w3.org/2000/svg" xmlns:xlink="http://www.w3.org/1999/xlink" x="0px" y="0px"
	 viewBox="0 0 175 50" style="enable-background:new 0 0 175 50;" xml:space="preserve">
<style type="text/css">
	.st0{fill-rule:evenodd;clip-rule:evenodd;}
	.st1{fill:#010202;stroke:#000000;stroke-width:4.012797e-02;stroke-linecap:round;stroke-linejoin:round;stroke-miterlimit:10;}
	.st2{fill:#231F20;}
	.st3{fill-rule:evenodd;clip-rule:evenodd;fill:#231F20;}
	.st4{fill:#1A1A1A;}
	.st5{fill:#FFCD00;}
	.st6{fill:#F5333F;}
</style>
<g id="Capa_1">
</g>
<g id="Capa_2">
	<g>
		<path d="M136.9,30.9c0-0.2-0.2-0.4-0.2-0.6c0-0.3-0.1-0.6-0.1-1c0-1.4,0-2.7,0-4.1c0-2.2,0-4.5,0-6.7c0-0.4,0-0.8,0-1.1
			c0-0.5-0.4-0.8-0.9-0.7c-0.5,0-0.9,0.2-1,0.9v4v7.3c0,1.2,0,2.3,0,3.4c0,0.4,0.2,0.7,0.7,1c0.3,0,0.7,0,1.1,0h3.5c1,0,1.9,0,2.8,0
			c0.2,0,0.5,0,0.7-0.1c0.1,0,0.2-0.1,0.3-0.1c0.2-0.2,0.3-0.5,0.3-0.8c0-0.3-0.1-0.6-0.5-0.9c-0.2,0-0.5,0-0.8,0h-3.7
			c-0.4,0-0.8,0-1.2,0C137.5,31.4,137.2,31.2,136.9,30.9"/>
		<path d="M36.1,28.2c1.1,0,2.2,0,3.4,0c0,0,0.1,0,0.2,0c0.3-0.1,0.6-0.4,0.6-0.7c0-0.2,0-0.4-0.1-0.6c-0.5-1.2-1-2.3-1.5-3.5
			c-0.1-0.2-0.2-0.4-0.3-0.6c-0.2-0.3-0.8-0.3-1,0c-0.2,0.2-0.3,0.4-0.4,0.7c-0.4,1-0.8,1.9-1.2,2.8c-0.2,0.3-0.3,0.7-0.4,1.1
			C35.4,28,35.7,28.2,36.1,28.2 M37,30.1c-0.6,0-1.2,0-1.9,0c-0.4,0-0.8,0.1-1.1,0.4c-0.3,0.3-0.5,0.6-0.6,1
			c-0.2,0.3-0.3,0.7-0.4,1.1c-0.2,0.6-0.7,0.9-1.3,0.8c-0.1,0-0.2,0-0.4-0.1c-0.1-0.1-0.2-0.2-0.3-0.4c0.1-0.2,0.1-0.5,0.2-0.8
			c1.1-2.5,2.1-5,3.2-7.6c0.7-1.8,1.4-3.6,2.2-5.3c0.3-0.7,0.6-1.4,0.9-2.1c0-0.1,0.2-0.1,0.3-0.2c0.1,0,0.2,0,0.3,0.1
			c0.1,0.1,0.2,0.3,0.3,0.4c0.4,0.8,0.7,1.7,1.1,2.5c0.6,1.5,1.2,2.9,1.8,4.4c1.1,2.6,2.2,5.2,3.3,7.9c0.1,0.1,0.1,0.3,0.1,0.5
			c0,0.2-0.2,0.4-0.4,0.5c-0.6,0.1-1.2-0.1-1.5-0.5c-0.2-0.2-0.3-0.5-0.4-0.7c-0.1-0.3-0.2-0.6-0.4-0.9c-0.2-0.5-0.6-0.8-1.2-1
			C39.5,30.2,38.3,30.2,37,30.1"/>
		<path d="M56.5,18.2c-0.1,0.2-0.3,0.3-0.5,0.4c-0.2,0-0.4,0-0.7,0c-0.6,0-1.2,0-1.8,0c-0.2,0-0.5,0-0.7,0.1
			c-0.4,0.1-0.6,0.3-0.7,0.7C52,19.7,52,20,52,20.3v5.9v5.9c0,0.2,0,0.4,0,0.6c-0.1,0.3-0.3,0.5-0.6,0.6c-0.3,0.1-0.6,0.1-0.8,0
			c-0.3-0.1-0.5-0.3-0.5-0.6c0-0.1,0-0.3,0-0.5c0-2.4,0-4.9,0-7.3c0-1.6,0-3.2,0-4.7c0-0.2,0-0.4-0.1-0.7c-0.1-0.4-0.4-0.8-0.9-0.8
			c-0.5,0-0.9,0-1.4,0c-0.5,0-1,0-1.5,0c-0.5,0-0.8-0.4-0.8-0.9c0-0.2,0-0.3,0.1-0.5c0.1-0.2,0.3-0.4,0.5-0.4
			c0.2-0.1,0.4-0.1,0.7-0.1c2.8,0,5.7,0,8.5,0c0.4,0,0.8,0,1.1,0.2C56.7,17.3,56.7,17.7,56.5,18.2"/>
		<path d="M68.4,21.7c0.7-1,1.3-2.1,1.9-3.1c0.4-0.6,0.7-1.2,1.2-1.8c0.6-0.2,1.3-0.3,1.9,0.1c0,0.2,0,0.4-0.1,0.5
			c-0.8,1.3-1.6,2.6-2.4,3.9c-0.7,1.2-1.5,2.3-2.1,3.3c-0.4,1.3-0.3,2.4-0.3,3.6c0,1.1,0,2.2,0,3.3c0,0.3,0,0.6,0,1
			c0,0.4-0.3,0.7-0.5,0.8c-0.5,0.1-0.9,0.1-1.2-0.3c-0.2-0.2-0.2-0.4-0.2-0.6c0-1,0-1.9,0-2.9c0-1.4,0-2.8-0.1-4.3
			c-0.2-0.3-0.4-0.7-0.6-1.1c-1.3-2.1-2.6-4.2-3.9-6.3c-0.1-0.1-0.2-0.3-0.2-0.4c0-0.1,0-0.3,0-0.4c0.1-0.1,0.2-0.2,0.3-0.2
			c0.2,0,0.3,0,0.5,0c0.7,0,1.3,0.2,1.6,0.9c0.4,0.7,0.8,1.4,1.3,2.1c0.5,0.7,0.9,1.5,1.4,2.2c0.2,0.2,0.4,0.4,0.7,0.4
			C68,22.2,68.2,22,68.4,21.7"/>
		<path d="M84,24.7c0.7-0.1,1.2-0.5,1.7-1c0.8-0.8,1.1-1.8,0.7-2.9c-0.3-1-1.1-1.8-2.2-2.1c-0.9-0.2-1.9-0.3-2.8-0.1
			c-0.4,0-0.6,0.3-0.7,0.6c-0.1,0.3-0.2,0.6-0.2,1c0,1,0,1.9,0,2.9c0,0.4,0.1,0.9,0.5,1.3C82,24.9,83,24.9,84,24.7 M79.1,33.3
			c-0.3-0.1-0.5-0.4-0.5-0.6c0-0.6-0.1-1.2-0.1-1.8c0-2.7,0-5.4,0-8.2c0-1.6,0-3.3,0-4.9c0-0.3,0.1-0.7,0.4-1c0.2,0,0.5-0.2,0.7-0.2
			c1.3,0,2.7,0,4,0c1.8,0.1,3.2,0.9,4.1,2.4c0.9,1.5,1,3.1,0.3,4.7c-0.7,1.4-1.9,2.3-3.4,2.7c-0.7,0.2-1.3,0.3-2,0.2
			c-0.4,0-0.7,0-1,0c-0.6,0-0.9,0.4-1,0.9c0,0.2-0.1,0.4-0.1,0.7c0,0.4,0,0.9,0,1.3c0,1,0,2-0.1,2.9c0,0.1-0.1,0.3-0.1,0.4
			C80,33.4,79.5,33.4,79.1,33.3"/>
		<path d="M93,32.7c0-0.6,0-1.2-0.1-1.8c0-0.5,0-1.1,0-1.6c0-0.6,0-1.2,0-1.8c0-3.1,0-6.2,0.1-9.3c0-0.2,0-0.3,0-0.5
			c0-0.9,0.4-1.2,1.3-1c0.3,0,0.5,0.2,0.6,0.5c0,0.2,0.1,0.4,0.1,0.6v5.2c0,1.6,0,3.2,0,4.7c0,1.4,0,2.8,0,4.2c0,0.2,0,0.4,0,0.6
			c0,0.3-0.4,0.6-0.7,0.6c-0.3,0-0.5,0-0.7,0C93.1,33.1,93,32.9,93,32.7"/>
		<path d="M110,18.9c-1.4-0.5-2.9-0.4-4.3,0.1c-2.3,0.9-3.7,2.6-4.2,4.9c-0.3,1.6,0.1,3.2,1,4.5c1.2,1.7,2.8,2.6,4.9,2.9
			c0.5,0.1,1,0,1.5-0.1c0.9-0.2,1.7-0.5,2.5-0.8c0.4-0.2,0.8,0,1,0.3c0.1,0.1,0.2,0.3,0.3,0.4c0.1,0.2,0,0.6-0.2,0.8
			c-0.2,0.1-0.3,0.3-0.5,0.4c-1.1,0.5-2.2,0.8-3.4,1c-0.4,0-0.8,0.1-1.2,0c-3.1-0.3-5.5-1.7-7-4.4c-0.9-1.5-1.2-3.1-1-4.9
			c0.4-3.6,3-6.4,6.5-7.2c0.3-0.1,0.6-0.1,0.8-0.1c0.6,0,1.1,0,1.7,0c1.4,0,2.6,0.4,3.8,1.1c0.1,0.1,0.3,0.2,0.3,0.3
			c0,0.1,0.1,0.3,0,0.5c-0.1,0.4-0.4,0.8-1,1C111.1,19.4,110.5,19.1,110,18.9"/>
		<path d="M125.7,22.2c-1.1,0-2.2,0-3.4,0c0,0-0.1,0-0.2,0c-0.3,0.1-0.6,0.4-0.6,0.7c0,0.2,0,0.4,0.1,0.6c0.5,1.2,1,2.3,1.5,3.5
			c0.1,0.2,0.2,0.4,0.3,0.6c0.2,0.3,0.8,0.3,1,0c0.2-0.2,0.3-0.4,0.4-0.7c0.4-1,0.8-1.9,1.2-2.8c0.2-0.3,0.3-0.7,0.4-1.1
			C126.4,22.4,126.1,22.2,125.7,22.2 M124.8,20.2c0.6,0,1.2,0,1.9,0c0.4,0,0.8-0.1,1.1-0.4c0.3-0.3,0.5-0.6,0.6-1
			c0.2-0.3,0.3-0.7,0.4-1.1c0.2-0.6,0.7-0.9,1.3-0.8c0.1,0,0.2,0,0.4,0.1c0.1,0.1,0.2,0.2,0.3,0.4c-0.1,0.2-0.1,0.5-0.2,0.8
			c-1.1,2.5-2.1,5-3.2,7.6c-0.7,1.8-1.4,3.6-2.2,5.3c-0.3,0.7-0.6,1.4-0.9,2.1c0,0.1-0.2,0.1-0.3,0.2c-0.1,0-0.2,0-0.3-0.1
			c-0.1-0.1-0.2-0.3-0.3-0.4c-0.4-0.8-0.7-1.7-1.1-2.5c-0.6-1.5-1.2-2.9-1.8-4.4c-1.1-2.6-2.2-5.2-3.3-7.9c-0.1-0.1-0.1-0.3-0.1-0.5
			c0-0.2,0.2-0.4,0.4-0.5c0.6-0.1,1.2,0.1,1.5,0.5c0.2,0.2,0.3,0.5,0.4,0.7c0.1,0.3,0.2,0.6,0.4,0.9c0.2,0.5,0.6,0.8,1.2,1
			C122.2,20.2,123.5,20.2,124.8,20.2"/>
	</g>
</g>
</svg>
