<svg xmlns="http://www.w3.org/2000/svg" width="16px" height="16px" viewBox="0 0 15.931 15.9" style="display: inline-block; fill: rgb(82, 82, 82); vertical-align: middle;"><g class=""><g data-name="Grupo 2220">
      <path data-name="Trazado 260" d="M8 5.8a1 1 0 1 1 .9-1 .9.9 0 0 1-1 1zm0-1.5a.5.5 0 1 0 .5.6.5.5 0 0 0-.5-.6z"/>
      <g data-name="Grupo 2013" transform="translate(-1103 -277)">
        <circle data-name="Elipse 1" cx=".7" cy=".7" r=".7" transform="translate(1110.3 281.2)"/>
        <path data-name="Trazado 259" d="M1111 289.2a.7.7 0 0 1-.7-.8v-4.1a.7.7 0 0 1 1.4 0v4.1a.7.7 0 0 1-.7.8z"/>
        <path data-name="Trazado 258" d="M1111 293a8 8 0 1 1 8-8 8 8 0 0 1-8 8zm0-14.5a6.5 6.5 0 1 0 6.5 6.5 6.5 6.5 0 0 0-6.5-6.5z"/>
      </g>
    </g></g></svg>