<svg xmlns="http://www.w3.org/2000/svg"><symbol id="24768"><g id="hpa-cart"><g transform="translate(5.353 14.068)"><ellipse cx="1.857" cy="1.84" rx="1.857" ry="1.84" transform="translate(0.109)" fill="white"></ellipse><path d="M-463.233,289.2a1.949,1.949,0,0,1-1.967-1.948,1.949,1.949,0,0,1,1.967-1.948,1.949,1.949,0,0,1,1.967,1.948A1.949,1.949,0,0,1-463.233,289.2Zm0-3.679a1.672,1.672,0,0,0-1.639,1.623,1.672,1.672,0,0,0,1.639,1.623,1.672,1.672,0,0,0,1.639-1.623A1.672,1.672,0,0,0-463.233,285.516Z" transform="translate(465.2 -285.3)" fill="white"></path></g><g transform="translate(12.674 14.068)"><ellipse cx="1.857" cy="1.84" rx="1.857" ry="1.84" transform="translate(0.109)" fill="white"></ellipse><path d="M-456.533,289.2a1.949,1.949,0,0,1-1.967-1.948,1.949,1.949,0,0,1,1.967-1.948,1.949,1.949,0,0,1,1.966,1.948A1.949,1.949,0,0,1-456.533,289.2Zm0-3.679a1.672,1.672,0,0,0-1.639,1.623,1.672,1.672,0,0,0,1.639,1.623,1.672,1.672,0,0,0,1.639-1.623A1.6,1.6,0,0,0-456.533,285.516Z" transform="translate(458.5 -285.3)" fill="white"></path></g><g><path d="M-451,275.214h-11.253v1.407h10.379l-1.2,5.086a1.737,1.737,0,0,1-1.639,1.3h-7.866a1.737,1.737,0,0,1-1.639-1.3l-1.966-8.766a.691.691,0,0,0-.656-.541H-469.9v1.407h2.513l1.857,8.225a3.056,3.056,0,0,0,3.059,2.381h7.866a3.146,3.146,0,0,0,3.059-2.381l1.42-5.952a.669.669,0,0,0-.546-.866Z" transform="translate(470.119 -272.292)" fill="white"></path><path d="M-454.7,284.637h-7.866a3.273,3.273,0,0,1-3.168-2.489l-1.857-8.116H-470.1V272.3h3.278a.95.95,0,0,1,.874.649l1.967,8.766a1.508,1.508,0,0,0,1.42,1.19h7.866a1.4,1.4,0,0,0,1.42-1.19l1.2-4.87h-10.379v-1.732h11.69a.9.9,0,0,1,.656,1.082l-1.42,5.952A3.273,3.273,0,0,1-454.7,284.637Zm0-.325h0a2.829,2.829,0,0,0,2.841-2.273l1.42-5.952c.109-.325-.109-.541-.437-.649h-11.253v1.082h10.488l-1.2,5.3a1.75,1.75,0,0,1-1.748,1.407h-7.866a1.87,1.87,0,0,1-1.857-1.407l-1.967-8.766a.725.725,0,0,0-.546-.433h-2.95v1.082h2.513v.108l1.857,8.225a2.918,2.918,0,0,0,2.841,2.273Z" transform="translate(470.1 -272.3)" fill="white"></path></g></g></symbol><use xlink:href="#24768"></use></svg>