<svg xmlns="http://www.w3.org/2000/svg" width="19" height="19" viewBox="0 0 16 16" style="display: inline-block; fill: rgb(165, 164, 164); vertical-align: middle;"><g class="">    <g id="Enmascarar_grupo_311" data-name="Enmascarar grupo 311" transform="translate(-143 -317)" clippath="url(#clip-path)">
      <path id="Trazado_2106" data-name="Trazado 2106" d="M976.168,908.886l-1.309-.618-.6-1.685a1.353,1.353,0,0,0-1.288-.876h-1.736v-.427a1.321,1.321,0,0,0-1.357-1.28h-4.525A1.321,1.321,0,0,0,964,905.28v6.4a.88.88,0,0,0,.9.854,1.813,1.813,0,0,0,3.62,0h3.62a1.813,1.813,0,0,0,3.62,0,.88.88,0,0,0,.9-.854V909.65A.85.85,0,0,0,976.168,908.886Zm-4.929-.618v-1.281h1.736l.453,1.281Z" transform="translate(-819 -584)"/>
    </g></g></svg>