<svg xmlns="http://www.w3.org/2000/svg" xmlns:xlink="http://www.w3.org/1999/xlink" width="30" height="30" viewBox="0 0 30 30">
  <defs>
    <clipPath id="clip-path">
      <rect id="Rectángulo_682" data-name="Rectángulo 682" width="30" height="30" transform="translate(321.5 23.5)" fill="none" stroke="#707070" stroke-width="1"/>
    </clipPath>
  </defs>
  <g id="Enmascarar_grupo_670" data-name="Enmascarar grupo 670" transform="translate(-321.5 -23.5)" clip-path="url(#clip-path)">
    <g id="Grupo_14623" data-name="Grupo 14623" transform="translate(-328.7 -689.1)">
      <g id="Grupo_14621" data-name="Grupo 14621" transform="translate(655.7 716.1)">
        <path id="Trazado_7865" data-name="Trazado 7865" d="M666.78,717.7a9.79,9.79,0,0,0-9.666,9.567c0,.071-.014.155-.014.24v9.356a3.468,3.468,0,0,0,6.929.3,9.314,9.314,0,0,0,2.737.409,9.938,9.938,0,0,0,.014-19.868Z" transform="translate(-656.903 -717.474)" fill="#221f1f"/>
        <path id="Trazado_7866" data-name="Trazado 7866" d="M659.383,739.256a3.735,3.735,0,0,1-3.683-3.782v-9.356a1.542,1.542,0,0,1,.014-.254,10.23,10.23,0,0,1,3.006-6.914,9.71,9.71,0,0,1,6.872-2.85,10.149,10.149,0,0,1,0,20.292,9.219,9.219,0,0,1-2.554-.353A3.751,3.751,0,0,1,659.383,739.256Zm6.195-22.719a9.535,9.535,0,0,0-9.454,9.356c0,.085-.014.155-.014.226v9.356a3.27,3.27,0,0,0,6.533.282l.028-.268.254.07a9.137,9.137,0,0,0,2.681.4,9.711,9.711,0,0,0-.028-19.417Z" transform="translate(-655.7 -716.1)" fill="#fff"/>
      </g>
      <g id="Grupo_14622" data-name="Grupo 14622" transform="translate(661.048 721.321)">
        <path id="Trazado_7867" data-name="Trazado 7867" d="M698.567,753.1a4.81,4.81,0,0,1,3.133,1.171,2.554,2.554,0,0,1,1.115,1.919,1.461,1.461,0,0,1-.677,1.3,1.406,1.406,0,0,1-.847.268,1.44,1.44,0,0,1-.72-.183,4.232,4.232,0,0,1-.705-.706,1.777,1.777,0,0,0-2.611-.042,1.891,1.891,0,0,0-.522,1.326,1.831,1.831,0,0,0,.522,1.326,1.678,1.678,0,0,0,1.27.55,1.807,1.807,0,0,0,1.171-.437l.663-.663a1.3,1.3,0,0,1,.9-.31,1.515,1.515,0,0,1,1.087.452,1.46,1.46,0,0,1,.466,1.1,2.53,2.53,0,0,1-1,1.778,4.7,4.7,0,0,1-3.26,1.256,4.939,4.939,0,0,1-2.159-.494,5.029,5.029,0,0,1-2.032-1.849,5.127,5.127,0,0,1,.8-6.378A4.768,4.768,0,0,1,698.567,753.1Z" transform="translate(-693.6 -753.1)" fill="#fff"/>
      </g>
    </g>
  </g>
</svg>
