<svg xmlns="http://www.w3.org/2000/svg" xmlns:xlink="http://www.w3.org/1999/xlink" width="30" height="30" viewBox="0 0 30 30">
  <defs>
    <clipPath id="clip-path">
      <rect id="Rectángulo_682" data-name="Rectángulo 682" width="30" height="30" transform="translate(257.5 23.5)" fill="none" stroke="#707070" stroke-width="1"/>
    </clipPath>
  </defs>
  <g id="Enmascarar_grupo_668" data-name="Enmascarar grupo 668" transform="translate(-257.5 -23.5)" clip-path="url(#clip-path)">
    <g id="Grupo_14619" data-name="Grupo 14619" transform="translate(-14958.01 340)">
      <path id="Trazado_7856" data-name="Trazado 7856" d="M48.658,52.65a.469.469,0,0,0-.2.892v.548a.2.2,0,0,0,.4,0v-.548a.472.472,0,0,0,.269-.424A.478.478,0,0,0,48.658,52.65Z" transform="translate(15181.661 -352.971)" fill="#221f1f"/>
      <path id="Trazado_7857" data-name="Trazado 7857" d="M44.16,39.5a8.951,8.951,0,0,1,3.006-.005.583.583,0,0,0,.01-.091c0-.38.01-.763-.005-1.143a1.5,1.5,0,0,0-2.988-.119c-.039.344-.016.7-.021,1.042C44.16,39.273,44.16,39.369,44.16,39.5Z" transform="translate(15184.648 -341.232)" fill="#221f1f"/>
      <path id="Trazado_7858" data-name="Trazado 7858" d="M14.509,20.651A12.611,12.611,0,0,0,15.585,23.6a10.744,10.744,0,0,0,1.855,2.561,13.529,13.529,0,0,0,5.414,3.262,1.346,1.346,0,0,0,.424.067,1.654,1.654,0,0,0,.579-.106c.623-.241,1.353-.533,2.051-.882a12.218,12.218,0,0,0,2.543-1.671,10.882,10.882,0,0,0,2.018-2.3,11.587,11.587,0,0,0,1.324-2.8,16.061,16.061,0,0,0,.642-3,39.8,39.8,0,0,0,.166-5.675c-.008-.411-.016-.836-.021-1.255h0a1.224,1.224,0,0,0-1.218-1.236c-.142-.01-.287-.018-.427-.026-.463-.028-.942-.057-1.4-.116a9.111,9.111,0,0,1-5.2-2.4A1.555,1.555,0,0,0,23.293,7.5h0a1.555,1.555,0,0,0-1.042.523A8.745,8.745,0,0,1,19.486,9.8a11.2,11.2,0,0,1-4.1.742,1.378,1.378,0,0,0-1,.36,1.362,1.362,0,0,0-.352,1c-.005.652,0,1.317,0,1.956v.82A22.667,22.667,0,0,0,14.509,20.651Zm6.048-2.791c.2-.021.393-.039.6-.059v-.155c.008-.453-.013-.905.031-1.353a2.154,2.154,0,0,1,4.232-.186,2.6,2.6,0,0,1,.059.566c.008.372,0,.745,0,1.128.2.021.4.041.6.059v4.475l-.554.054c-.639.057-1.278.132-1.919.166a8.432,8.432,0,0,1-1.141-.047c-.61-.047-1.221-.109-1.831-.166-.023,0-.049-.008-.08-.01C20.557,20.845,20.557,19.358,20.557,17.86Z" transform="translate(15207 -319.5)" fill="#221f1f"/>
    </g>
  </g>
</svg>
