<svg xmlns="http://www.w3.org/2000/svg" width="19" height="19" viewBox="0 0 16 16" style="display: inline-block; fill: rgb(165, 164, 164); vertical-align: middle;"><g class="">   <g id="Enmascarar_grupo_372" data-name="Enmascarar grupo 372" transform="translate(-513.5 -319.5)" clippath="url(#clip-path)">
      <path id="Trazado_7636" data-name="Trazado 7636" d="M41.173,14.5A6.783,6.783,0,1,0,34.39,7.713,6.783,6.783,0,0,0,41.173,14.5ZM38.8,10.154c.06-.224.116-.425.178-.623.035-.116.111-.349.352-.349a.593.593,0,0,1,.274.085A3.228,3.228,0,0,0,40.72,9.6a1.3,1.3,0,0,0,.678-.088.414.414,0,0,0,.1-.739,1.678,1.678,0,0,0-.4-.231c-.123-.055-.251-.106-.372-.153a5.989,5.989,0,0,1-.859-.409,1.888,1.888,0,0,1-1.06-1.809,1.982,1.982,0,0,1,1.442-1.836c.2-.073.2-.073.2-.274V3.736c0-.354.133-.48.485-.49h.306c.605,0,.663.128.666.726,0,.221,0,.221.221.251a3.557,3.557,0,0,1,.884.264.43.43,0,0,1,.251.55l-.058.2c-.048.168-.1.339-.151.5a.455.455,0,0,1-.221.306A.472.472,0,0,1,42.444,6a2.489,2.489,0,0,0-1.236-.251.806.806,0,0,0-.289.058.357.357,0,0,0-.231.266.344.344,0,0,0,.148.306,2.143,2.143,0,0,0,.53.3l.126.053a8.994,8.994,0,0,1,.947.435,2.163,2.163,0,0,1,1.1,1.482,2.03,2.03,0,0,1-.432,1.673,2.206,2.206,0,0,1-1.143.734c-.108.03-.121.055-.116.143s0,.251,0,.369v.2a.414.414,0,0,1-.432.447h-.588a.427.427,0,0,1-.445-.455v-.555l-.136-.023a4,4,0,0,1-1.128-.327h0C38.771,10.677,38.7,10.524,38.8,10.154Z" transform="translate(480.61 320.07)"/>
    </g></g></svg>