<?xml version="1.0" encoding="UTF-8"?><svg id="Capa_1" xmlns="http://www.w3.org/2000/svg" viewBox="0 0 175 50"><defs><style>.cls-1{fill:#231f20;}</style></defs><path class="cls-1" d="M103.5,41h-32V9h32V41Zm-30.62-1.38h29.24V10.38h-29.24v29.24Z"/><g><polygon class="cls-1" points="79.66 19.54 77.69 19.54 77.69 31.96 82.29 31.96 82.29 30.1 79.66 30.1 79.66 19.54"/><path class="cls-1" d="M94.66,19.46c-2.78,0-2.78,2.49-2.78,3.31v6.31c0,2.05,.83,3.01,2.61,3.01,1.9,0,2.82-.98,2.82-3.01v-6.27c0-1.56-.3-3.35-2.65-3.35Zm-.81,2.99c0-.69,.06-1.22,.78-1.22,.55,0,.73,.22,.73,1.6v6.33c0,.86-.11,1.24-.78,1.24-.54,0-.73-.28-.73-1.07v-6.87Z"/><polygon class="cls-1" points="84.72 31.96 89.07 31.96 89.07 30.06 86.72 30.06 86.72 26.46 88.34 26.46 88.34 24.57 86.7 24.57 86.7 21.43 89.07 21.43 89.07 19.54 84.72 19.54 84.72 31.96"/></g></svg>