<?xml version="1.0" encoding="utf-8"?>
<!-- Generator: Adobe Illustrator 26.3.1, SVG Export Plug-In . SVG Version: 6.00 Build 0)  -->
<svg version="1.1" xmlns="http://www.w3.org/2000/svg" xmlns:xlink="http://www.w3.org/1999/xlink" x="0px" y="0px"
	 viewBox="0 0 175 50" style="enable-background:new 0 0 175 50;" xml:space="preserve">
<style type="text/css">
	.st0{fill-rule:evenodd;clip-rule:evenodd;}
	.st1{fill:#010202;stroke:#000000;stroke-width:4.012797e-02;stroke-linecap:round;stroke-linejoin:round;stroke-miterlimit:10;}
	.st2{fill:#231F20;}
	.st3{fill-rule:evenodd;clip-rule:evenodd;fill:#231F20;}
	.st4{fill:#1A1A1A;}
	.st5{fill:#FFCD00;}
	.st6{fill:#F5333F;}
</style>
<g id="Capa_1">
</g>
<g id="Capa_2">
	<path d="M89.3,11.4h-0.6l-7.1,20.6l-6.8-20.7l-7.5,0v0.4c0,0,2.7,0.2,2.7,1.6l-0.1,23c0,1.4-2.7,1.6-2.7,1.6v0.4l6.2,0v-0.4
		c0,0-2.7-0.2-2.7-1.7l0.1-22.3l8.1,24.4l1.3,0l8.5-24.6l-0.1,21.7c0,2.5-3.4,2.5-3.4,2.5v0.4l11.5,0.1v-0.4c0,0-3.4,0-3.4-2.5
		l0.1-21.3c0-0.5,0.1-1,0.3-1.4c0.3-0.5,0.8-0.7,1.4-0.7l3.2,0c0.4,0,0.8,0,1.2,0.1c3.4,0.9,4.9,3.4,4.9,6.6c0,3.9-2.4,6.8-7.8,6.8
		v0.6l3.5,0c4.3,0,7.7-3.2,7.7-7.5c0-4.3-3.4-7.6-7.7-7.6L89.3,11.4L89.3,11.4z"/>
</g>
</svg>
