<svg xmlns="http://www.w3.org/2000/svg" width="111.158" height="24.536" viewBox="0 0 111.158 24.536">
  <g id="placetopay-logo" transform="translate(-1.659 -3.515)">
    <path id="Trazado_13614" data-name="Trazado 13614" d="M103,11.908h1.25l.077,1.538a3.4,3.4,0,0,1,3-1.731,4.593,4.593,0,0,1,1.558.327,3.769,3.769,0,0,1,1.212.827,3.811,3.811,0,0,1,.788,1.288,4.734,4.734,0,0,1,.288,1.692,4.842,4.842,0,0,1-.288,1.711,3.9,3.9,0,0,1-.788,1.308,3.391,3.391,0,0,1-1.231.827,4.285,4.285,0,0,1-1.6.288A4.075,4.075,0,0,1,105.6,19.6a3.1,3.1,0,0,1-1.327-1.212v5.154H103Zm4.192,6.865a2.534,2.534,0,0,0,1.923-.75,2.943,2.943,0,0,0,.731-2.115,2.978,2.978,0,0,0-.731-2.154,2.551,2.551,0,0,0-1.923-.731,2.719,2.719,0,0,0-1.135.231,2.365,2.365,0,0,0-.865.615,2.475,2.475,0,0,0-.558.923,3.289,3.289,0,0,0,.019,2.269,2.875,2.875,0,0,0,.577.923,2.68,2.68,0,0,0,.865.6A3.271,3.271,0,0,0,107.192,18.773Zm7.269,1.038h-1.308V8.6h1.308Zm9.019,0-.038-1.4a2.519,2.519,0,0,1-.577.692,3.65,3.65,0,0,1-.712.5,2.887,2.887,0,0,1-.808.288,4.2,4.2,0,0,1-.827.1,4.433,4.433,0,0,1-1.6-.288,3.619,3.619,0,0,1-1.288-.827,3.883,3.883,0,0,1-.865-1.308,4.547,4.547,0,0,1-.308-1.731,4.707,4.707,0,0,1,.327-1.788,3.621,3.621,0,0,1,.865-1.288,3.7,3.7,0,0,1,1.288-.788,4.793,4.793,0,0,1,1.6-.269,3.858,3.858,0,0,1,1.711.385,2.919,2.919,0,0,1,1.231,1.231l.019-1.442h1.288v7.923H123.48ZM120.6,12.965a3.023,3.023,0,0,0-1.115.192,2.6,2.6,0,0,0-.9.577,2.873,2.873,0,0,0-.615.923,3.218,3.218,0,0,0-.231,1.25,3,3,0,0,0,.231,1.192,2.775,2.775,0,0,0,.615.923,2.6,2.6,0,0,0,.9.577,3.029,3.029,0,0,0,1.115.212,2.788,2.788,0,0,0,1.6-.442,2.853,2.853,0,0,0,.962-1.077,3.2,3.2,0,0,0,.327-1.4,3.14,3.14,0,0,0-.327-1.4,2.718,2.718,0,0,0-.962-1.077,2.611,2.611,0,0,0-1.6-.442Zm13.173,5.827a3.906,3.906,0,0,1-1.365.923,4.3,4.3,0,0,1-1.558.288,4.433,4.433,0,0,1-1.6-.288,3.942,3.942,0,0,1-1.308-.808,3.742,3.742,0,0,1-.885-1.308,4.9,4.9,0,0,1,0-3.519,3.661,3.661,0,0,1,.885-1.308,3.942,3.942,0,0,1,1.308-.808,4.461,4.461,0,0,1,1.615-.288,3.958,3.958,0,0,1,1.519.288,4.477,4.477,0,0,1,1.346.9l-.846.865a2.757,2.757,0,0,0-.942-.615,2.86,2.86,0,0,0-1.058-.192,3.023,3.023,0,0,0-1.115.192,2.6,2.6,0,0,0-.9.577,2.784,2.784,0,0,0-.615.9,3.092,3.092,0,0,0-.231,1.211,3.218,3.218,0,0,0,.231,1.25,2.515,2.515,0,0,0,.615.9,2.455,2.455,0,0,0,.9.558,2.991,2.991,0,0,0,1.1.192,3.243,3.243,0,0,0,1.115-.192,2.473,2.473,0,0,0,.962-.635ZM142.4,18.6a3.812,3.812,0,0,1-1.558,1.058A5.41,5.41,0,0,1,138.98,20a4.81,4.81,0,0,1-1.692-.288,3.612,3.612,0,0,1-1.327-.827,3.967,3.967,0,0,1-.865-1.327,4.547,4.547,0,0,1-.308-1.731,4.222,4.222,0,0,1,.308-1.654,4.034,4.034,0,0,1,.846-1.308,3.575,3.575,0,0,1,1.308-.846,4.222,4.222,0,0,1,1.654-.308,5.291,5.291,0,0,1,1.692.269,3.145,3.145,0,0,1,1.308.846,3.525,3.525,0,0,1,.808,1.442,5.276,5.276,0,0,1,.154,2.038h-6.75a2.961,2.961,0,0,0,.288,1.038,3.178,3.178,0,0,0,.635.788,2.854,2.854,0,0,0,.885.5,3.3,3.3,0,0,0,1.058.173,4.2,4.2,0,0,0,.692-.058,2.623,2.623,0,0,0,.692-.192,2.426,2.426,0,0,0,.635-.308,1.728,1.728,0,0,0,.481-.423Zm-.808-3.385a2.112,2.112,0,0,0-.769-1.731,2.957,2.957,0,0,0-1.9-.577,3.272,3.272,0,0,0-.981.154,2.735,2.735,0,0,0-.846.442,2.6,2.6,0,0,0-.635.731,2.777,2.777,0,0,0-.346,1.019h5.481Z" transform="translate(-81.853 -4.107)" fill="#7a828b"/>
    <path id="Trazado_13615" data-name="Trazado 13615" d="M318.9,15.988h2.442V17.1h-2.461v4.327a2.079,2.079,0,0,0,.269,1.115,1.078,1.078,0,0,0,.981.4,1.766,1.766,0,0,0,.538-.1c.173-.058.365-.135.538-.212l.385,1.1a3.784,3.784,0,0,1-1.538.385,2.332,2.332,0,0,1-1.9-.673,3.048,3.048,0,0,1-.6-2.019V17.1H316V15.988h1.6V13.854l1.327-.154v2.288Zm3.615,4a4.416,4.416,0,0,1,.308-1.692,3.883,3.883,0,0,1,.865-1.308A3.574,3.574,0,0,1,325,16.142a4.126,4.126,0,0,1,1.635-.308,4.222,4.222,0,0,1,1.654.308,4.034,4.034,0,0,1,1.308.846,4.084,4.084,0,0,1,.865,1.308,4.416,4.416,0,0,1,.308,1.692,4.252,4.252,0,0,1-.308,1.673,4.084,4.084,0,0,1-.865,1.308,3.743,3.743,0,0,1-1.308.846,4.192,4.192,0,0,1-1.635.308,4.061,4.061,0,0,1-1.635-.308,4.251,4.251,0,0,1-1.308-.846,4.083,4.083,0,0,1-.865-1.308A3.939,3.939,0,0,1,322.519,19.988Zm6.923,0a3.372,3.372,0,0,0-.212-1.192,2.831,2.831,0,0,0-.6-.923,2.566,2.566,0,0,0-.885-.6,2.683,2.683,0,0,0-1.115-.212,2.955,2.955,0,0,0-1.115.212,2.866,2.866,0,0,0-.885.6,2.832,2.832,0,0,0-.6.923,2.992,2.992,0,0,0-.212,1.192,3.264,3.264,0,0,0,.212,1.173,3.144,3.144,0,0,0,.577.923,2.566,2.566,0,0,0,.885.6,3.03,3.03,0,0,0,1.115.212,3.132,3.132,0,0,0,1.135-.212,2.646,2.646,0,0,0,.9-.6,2.513,2.513,0,0,0,.577-.923A3.265,3.265,0,0,0,329.442,19.988Z" transform="translate(-253.893 -8.227)" fill="#f36e21"/>
    <path id="Trazado_13616" data-name="Trazado 13616" d="M403.319,24.912h1.25l.077,1.538a3.4,3.4,0,0,1,3-1.731,4.593,4.593,0,0,1,1.558.327,3.77,3.77,0,0,1,1.212.827,3.811,3.811,0,0,1,.788,1.288,4.735,4.735,0,0,1,.288,1.692,4.842,4.842,0,0,1-.288,1.711,3.9,3.9,0,0,1-.788,1.308,3.392,3.392,0,0,1-1.231.827,4.285,4.285,0,0,1-1.6.288,4.075,4.075,0,0,1-1.673-.385,3.1,3.1,0,0,1-1.327-1.211v5.154H403.3V24.912Zm4.192,6.865a2.535,2.535,0,0,0,1.923-.75,2.943,2.943,0,0,0,.731-2.115,2.978,2.978,0,0,0-.731-2.154,2.551,2.551,0,0,0-1.923-.731,2.719,2.719,0,0,0-1.135.231,2.365,2.365,0,0,0-.865.615,2.475,2.475,0,0,0-.558.923,3.289,3.289,0,0,0,.019,2.269,2.875,2.875,0,0,0,.577.923,2.411,2.411,0,0,0,.865.6,3.272,3.272,0,0,0,1.1.192ZM419.9,32.815l-.038-1.4a2.519,2.519,0,0,1-.577.692,3.651,3.651,0,0,1-.711.5,2.888,2.888,0,0,1-.808.288,4.2,4.2,0,0,1-.827.1,4.433,4.433,0,0,1-1.6-.288,3.619,3.619,0,0,1-1.288-.827,3.883,3.883,0,0,1-.865-1.308,4.547,4.547,0,0,1-.308-1.731,4.708,4.708,0,0,1,.327-1.788,3.621,3.621,0,0,1,.865-1.288,3.7,3.7,0,0,1,1.288-.788,4.793,4.793,0,0,1,1.6-.269,3.858,3.858,0,0,1,1.712.385,2.919,2.919,0,0,1,1.231,1.231l.019-1.442H421.2V32.8H419.9Zm-2.885-6.846a3.023,3.023,0,0,0-1.115.192,2.6,2.6,0,0,0-.9.577,2.874,2.874,0,0,0-.615.923,3.218,3.218,0,0,0-.231,1.25,3,3,0,0,0,.231,1.192,2.775,2.775,0,0,0,.615.923,2.6,2.6,0,0,0,.9.577,3.03,3.03,0,0,0,1.115.212,2.788,2.788,0,0,0,1.6-.442,2.853,2.853,0,0,0,.961-1.077,3.2,3.2,0,0,0,.327-1.4,3.14,3.14,0,0,0-.327-1.4,2.718,2.718,0,0,0-.961-1.077A2.649,2.649,0,0,0,417.011,25.969Zm8.846,10.6h-1.442l1.673-3.865-3.211-7.807h1.5l1.558,4.1.885,2.269.827-2.269,1.75-4.115h1.442Z" transform="translate(-324.405 -17.111)" fill="#7a828b"/>
    <g id="Grupo_21141" data-name="Grupo 21141" transform="translate(66.184 20.973)">
      <path id="Trazado_13617" data-name="Trazado 13617" d="M339.258,99.146a1.8,1.8,0,0,0,.212-.9,1.55,1.55,0,0,0-.212-.827.7.7,0,0,0-.635-.327.872.872,0,0,0-.635.269,1.163,1.163,0,0,0-.269.885,1.939,1.939,0,0,0,.115.731.776.776,0,0,0,.788.519.7.7,0,0,0,.635-.346m-2.038-3.654h.519v1.577a1.055,1.055,0,0,1,.423-.346,1.336,1.336,0,0,1,1.5.288,1.724,1.724,0,0,1,.365,1.211,2.008,2.008,0,0,1-.365,1.25,1.206,1.206,0,0,1-1.019.5,1.055,1.055,0,0,1-.615-.173,1.735,1.735,0,0,1-.327-.327v.4h-.5V95.492Zm5.192,1.212h.6c-.077.212-.25.673-.5,1.385-.192.538-.346.981-.481,1.327a8.13,8.13,0,0,1-.654,1.481.773.773,0,0,1-.654.269h-.173a.594.594,0,0,1-.154-.038v-.481a1.61,1.61,0,0,0,.192.038h.115a.309.309,0,0,0,.211-.058l.115-.115c.019-.019.038-.1.115-.25a3.505,3.505,0,0,1,.135-.327L340.1,96.665h.6l.846,2.577Zm6.827,1.423a1.5,1.5,0,0,0-.519-1.173,1.978,1.978,0,0,0-1.288-.385,2.586,2.586,0,0,0-.673.1,1.628,1.628,0,0,0-.577.288,1.693,1.693,0,0,0-.423.481,2.255,2.255,0,0,0-.25.692Zm.539,2.288a2.517,2.517,0,0,1-1.058.712,3.692,3.692,0,0,1-1.269.231,3.16,3.16,0,0,1-1.154-.192,2.866,2.866,0,0,1-.9-.558,2.436,2.436,0,0,1-.577-.9,3.266,3.266,0,0,1-.212-1.173,3.03,3.03,0,0,1,.212-1.115,2.563,2.563,0,0,1,1.462-1.461,3.056,3.056,0,0,1,1.135-.212,3.16,3.16,0,0,1,1.154.192,2.146,2.146,0,0,1,.9.577,2.488,2.488,0,0,1,.558.961,3.516,3.516,0,0,1,.1,1.385h-4.615a1.545,1.545,0,0,0,.212.692,1.7,1.7,0,0,0,.442.538,1.721,1.721,0,0,0,.615.327,2.325,2.325,0,0,0,.731.115,4.394,4.394,0,0,0,.481-.038c.173-.038.327-.077.481-.115a1.743,1.743,0,0,0,.423-.212.957.957,0,0,0,.327-.288Zm1.481-4.519.885,2.077.9,2.346.9-2.327.885-2.1h.981l-2.288,5.365h-.962L350.257,95.9Zm9.307,2.231a1.5,1.5,0,0,0-.519-1.173,1.978,1.978,0,0,0-1.288-.385,2.586,2.586,0,0,0-.673.1,1.628,1.628,0,0,0-.577.288,1.694,1.694,0,0,0-.423.481,2.253,2.253,0,0,0-.25.692Zm.558,2.288a2.466,2.466,0,0,1-1.077.712,3.692,3.692,0,0,1-1.269.231,3.16,3.16,0,0,1-1.154-.192,2.866,2.866,0,0,1-.9-.558,2.434,2.434,0,0,1-.577-.9,3.265,3.265,0,0,1-.212-1.173,3.029,3.029,0,0,1,.212-1.115,2.563,2.563,0,0,1,1.462-1.461,3.056,3.056,0,0,1,1.135-.212,3.159,3.159,0,0,1,1.154.192,2.147,2.147,0,0,1,.9.577,2.489,2.489,0,0,1,.558.961,3.517,3.517,0,0,1,.1,1.385h-4.615a1.545,1.545,0,0,0,.212.692,1.7,1.7,0,0,0,.442.538,1.721,1.721,0,0,0,.615.327,2.324,2.324,0,0,0,.731.115,4.394,4.394,0,0,0,.481-.038c.173-.038.327-.077.481-.115a1.741,1.741,0,0,0,.423-.212.957.957,0,0,0,.327-.288Zm2.173-3.731a1.571,1.571,0,0,1,.75-.712,2.25,2.25,0,0,1,.9-.192,1.981,1.981,0,0,1,.673.115,2.75,2.75,0,0,1,.577.308l-.4.769a2.436,2.436,0,0,0-.442-.231,1.366,1.366,0,0,0-.5-.077,1.666,1.666,0,0,0-.615.115,1.5,1.5,0,0,0-.5.327,1.3,1.3,0,0,0-.346.5,1.8,1.8,0,0,0-.135.654v3h-.9V95.915h.827Zm5.865-.827h1.654v.75h-1.673v2.923a1.352,1.352,0,0,0,.173.75.72.72,0,0,0,.673.269,1.208,1.208,0,0,0,.365-.058,2.961,2.961,0,0,0,.365-.154l.269.731a2.61,2.61,0,0,1-1.058.269,1.5,1.5,0,0,1-1.288-.462,2.065,2.065,0,0,1-.4-1.365V96.588h-1.077v-.75h1.077V94.4l.9-.1v1.558Zm6.75,2.269a1.5,1.5,0,0,0-.519-1.173,1.978,1.978,0,0,0-1.288-.385,2.586,2.586,0,0,0-.673.1,1.628,1.628,0,0,0-.577.288,1.694,1.694,0,0,0-.423.481,2.255,2.255,0,0,0-.25.692Zm.538,2.288a2.517,2.517,0,0,1-1.058.712,3.692,3.692,0,0,1-1.269.231,3.159,3.159,0,0,1-1.154-.192,2.866,2.866,0,0,1-.9-.558,2.435,2.435,0,0,1-.577-.9,3.266,3.266,0,0,1-.212-1.173,3.03,3.03,0,0,1,.212-1.115,2.563,2.563,0,0,1,1.462-1.461,3.056,3.056,0,0,1,1.135-.212,3.16,3.16,0,0,1,1.154.192,2.147,2.147,0,0,1,.9.577,2.489,2.489,0,0,1,.558.961,3.517,3.517,0,0,1,.1,1.385H372.18a1.83,1.83,0,0,0,.192.692,1.946,1.946,0,0,0,.423.538,1.721,1.721,0,0,0,.615.327,2.324,2.324,0,0,0,.731.115,4.395,4.395,0,0,0,.481-.038c.173-.038.327-.077.481-.115a1.743,1.743,0,0,0,.423-.212.958.958,0,0,0,.327-.288l.6.538Zm6,.135a2.721,2.721,0,0,1-.942.635,2.861,2.861,0,0,1-1.058.192,2.991,2.991,0,0,1-1.1-.192,3.048,3.048,0,0,1-.9-.538,2.7,2.7,0,0,1-.615-.885,2.931,2.931,0,0,1-.231-1.192,3.189,3.189,0,0,1,.212-1.173,2.865,2.865,0,0,1,.6-.885,2.515,2.515,0,0,1,.9-.538,2.991,2.991,0,0,1,1.1-.192,2.693,2.693,0,0,1,1.038.192,2.771,2.771,0,0,1,.923.615l-.577.577a1.619,1.619,0,0,0-.635-.4,1.867,1.867,0,0,0-.712-.135,2.092,2.092,0,0,0-.769.135,1.851,1.851,0,0,0-.615.385,2.056,2.056,0,0,0-.423.615,2.262,2.262,0,0,0-.154.827,2.29,2.29,0,0,0,.154.846,1.758,1.758,0,0,0,.423.615,1.851,1.851,0,0,0,.615.385,1.926,1.926,0,0,0,.75.135,2.062,2.062,0,0,0,.75-.135,1.824,1.824,0,0,0,.654-.423Zm.865-4.308V96.4h.115a.077.077,0,1,0,0-.154Zm.154.212.135.154v.019h-.1l-.135-.154h-.058v.154h-.077v-.462h.212c.038,0,.058,0,.077.019l.058.058a.071.071,0,0,1,.019.058v.077c0,.019-.019.038-.038.058C383.525,96.435,383.506,96.454,383.468,96.454Zm-.423-.058a.285.285,0,0,0,.019.135.4.4,0,0,0,.077.115.245.245,0,0,0,.115.077.375.375,0,0,0,.154.019.423.423,0,0,0,.154-.019.353.353,0,0,0,.192-.192.326.326,0,0,0,.019-.135.284.284,0,0,0-.019-.135.4.4,0,0,0-.077-.115.245.245,0,0,0-.115-.077.375.375,0,0,0-.154-.019c-.058,0-.1.019-.154.019a.354.354,0,0,0-.192.192A.285.285,0,0,0,383.045,96.4Zm.346-.442a.569.569,0,0,1,.192.038.344.344,0,0,1,.135.1.483.483,0,0,1,.077.135.563.563,0,0,1,.038.173.286.286,0,0,1-.038.173.836.836,0,0,1-.077.135.345.345,0,0,1-.135.1.5.5,0,0,1-.385,0,.346.346,0,0,1-.135-.1.484.484,0,0,1-.077-.135.562.562,0,0,1-.038-.173.286.286,0,0,1,.038-.173.311.311,0,0,1,.077-.135.345.345,0,0,1,.135-.1.569.569,0,0,1,.192-.038" transform="translate(-337.2 -94.3)" fill="#7a828b"/>
    </g>
    <g id="Grupo_21142" data-name="Grupo 21142" transform="translate(1.659 3.515)">
      <path id="Trazado_13618" data-name="Trazado 13618" d="M18.34,11.166a1.166,1.166,0,0,0-1.6-.423,1.143,1.143,0,0,0-.423,1.577,1.163,1.163,0,0,0,2.019-1.154m-4.058-.308a1.042,1.042,0,1,0,1.423.385,1.024,1.024,0,0,0-1.423-.385m-2.481.1a.93.93,0,1,0,1.269.346.905.905,0,0,0-1.269-.346m-.365-.654A.831.831,0,1,0,10.3,9.992a.824.824,0,0,0,1.135.308M8.128,8.973a.7.7,0,1,0,.981.25.715.715,0,0,0-.981-.25M6.936,11.242a.59.59,0,1,0,.808.212.574.574,0,0,0-.808-.212m1.308,2.25a.478.478,0,1,0,.654.173.474.474,0,0,0-.654-.173M14.59,10.05a.927.927,0,0,0,.346-1.288.965.965,0,0,0-1.288-.346.943.943,0,1,0,.942,1.635m-3.1-2.192a.908.908,0,0,0,1.231.327.886.886,0,0,0,.327-1.212.9.9,0,0,0-1.231-.327.881.881,0,0,0-.327,1.212M10.455,6.339a.8.8,0,1,0-.288,1.1.794.794,0,0,0,.288-1.1M7.609,8.069A.754.754,0,1,0,6.59,7.8a.744.744,0,0,0,1.019.269M5.725,9.819a.651.651,0,0,0,.25-.9.686.686,0,0,0-.923-.25.647.647,0,0,0-.25.9.669.669,0,0,0,.923.25m-.538,1.654a.542.542,0,0,0-.75-.192.551.551,0,1,0,.538.962.571.571,0,0,0,.212-.769M5.8,14.012a.465.465,0,1,0-.173.635.487.487,0,0,0,.173-.635M7.013,15.7a.417.417,0,0,0-.154.577.435.435,0,0,0,.6.154.417.417,0,0,0,.154-.577.453.453,0,0,0-.6-.154m2.558.731a.366.366,0,1,0,.5.135.372.372,0,0,0-.5-.135m2.558-.615a.31.31,0,1,0,.423.115.3.3,0,0,0-.423-.115m5.269-5.75a1.04,1.04,0,0,0,.385-1.423,1.063,1.063,0,0,0-1.442-.385,1.04,1.04,0,0,0-.385,1.423,1.058,1.058,0,0,0,1.442.385M16.032,7.762A.984.984,0,0,0,16.4,6.4a1.023,1.023,0,0,0-1.385-.365A.984.984,0,0,0,14.647,7.4a1.011,1.011,0,0,0,1.385.365m-2.058-1.75A.891.891,0,0,0,14.3,4.781a.908.908,0,0,0-1.231-.327.887.887,0,0,0-.327,1.231.9.9,0,0,0,1.231.327m-2.481-.923A.83.83,0,0,0,11.8,3.935a.869.869,0,0,0-1.173-.308.83.83,0,0,0-.308,1.154.864.864,0,0,0,1.173.308M8.821,5.012a.778.778,0,0,0,.288-1.038A.754.754,0,0,0,8.071,3.7a.744.744,0,0,0-.288,1.038.754.754,0,0,0,1.038.269M6.59,4.9a.719.719,0,1,0-.269.981A.721.721,0,0,0,6.59,4.9M4.282,7.454a.633.633,0,1,0-.865-.231.629.629,0,0,0,.865.231M2.34,8.646a.59.59,0,1,0,.6,1.019.59.59,0,0,0-.6-1.019m.288,2.846a.526.526,0,0,0-.712-.192.508.508,0,0,0-.192.692.526.526,0,0,0,.712.192.5.5,0,0,0,.192-.692M2.4,13.9a.474.474,0,0,0-.173.654.486.486,0,0,0,.654.154.457.457,0,0,0,.173-.635A.474.474,0,0,0,2.4,13.9M3.744,16.2a.411.411,0,0,0-.154.558.43.43,0,0,0,.558.154.409.409,0,0,0-.4-.712m2.038,1.711a.366.366,0,1,0,.5.135.376.376,0,0,0-.5-.135m2.5.962a.31.31,0,1,0,.423.115.3.3,0,0,0-.423-.115m2.731-.019a.309.309,0,0,0-.115.423.31.31,0,1,0,.538-.308.3.3,0,0,0-.423-.115m2.4-.865a.265.265,0,0,0-.1.385.28.28,0,0,0,.385.1.286.286,0,0,0,.115-.385.308.308,0,0,0-.4-.1m2.038-1.635a.237.237,0,1,0,.25.4.208.208,0,0,0,.077-.308.221.221,0,0,0-.327-.1" transform="translate(-1.659 -3.515)" fill="#f36e21"/>
    </g>
  </g>
</svg>
