<?xml version="1.0" encoding="utf-8"?>
<!-- Generator: Adobe Illustrator 26.3.1, SVG Export Plug-In . SVG Version: 6.00 Build 0)  -->
<svg version="1.1" xmlns="http://www.w3.org/2000/svg" xmlns:xlink="http://www.w3.org/1999/xlink" x="0px" y="0px"
	 viewBox="0 0 175 50" style="enable-background:new 0 0 175 50;" xml:space="preserve">
<style type="text/css">
	.st0{fill-rule:evenodd;clip-rule:evenodd;}
	.st1{fill:#010202;stroke:#000000;stroke-width:4.012797e-02;stroke-linecap:round;stroke-linejoin:round;stroke-miterlimit:10;}
	.st2{fill:#231F20;}
	.st3{fill-rule:evenodd;clip-rule:evenodd;fill:#231F20;}
	.st4{fill:#1A1A1A;}
	.st5{fill:#FFCD00;}
	.st6{fill:#F5333F;}
</style>
<g id="Capa_1">
</g>
<g id="Capa_2">
	<g>
		<g>
			<g>
				<path d="M75.1,32.2c-3.3,0-6-2.7-6-6s2.7-6,6-6c3.3,0,6,2.7,6,6S78.4,32.2,75.1,32.2z M75.1,21c-2.8,0-5.2,2.3-5.2,5.2
					c0,2.8,2.3,5.2,5.2,5.2c2.8,0,5.2-2.3,5.2-5.2C80.2,23.4,77.9,21,75.1,21z"/>
				<path d="M75.1,36c-5.4,0-9.8-4.4-9.8-9.8c0-5.4,4.4-9.8,9.8-9.8c5.4,0,9.8,4.4,9.8,9.8C84.9,31.6,80.5,36,75.1,36z M75.1,17.2
					c-5,0-9,4-9,9s4,9,9,9c5,0,9-4,9-9S80,17.2,75.1,17.2z"/>
			</g>
			<g>
				<path d="M116.8,32.2c-3.3,0-6-2.7-6-6s2.7-6,6-6c3.3,0,6,2.7,6,6S120.1,32.2,116.8,32.2z M116.8,21c-2.8,0-5.2,2.3-5.2,5.2
					c0,2.8,2.3,5.2,5.2,5.2c2.8,0,5.2-2.3,5.2-5.2C121.9,23.4,119.6,21,116.8,21z"/>
				<path d="M116.8,36c-5.4,0-9.8-4.4-9.8-9.8c0-5.4,4.4-9.8,9.8-9.8c5.4,0,9.8,4.4,9.8,9.8C126.6,31.6,122.2,36,116.8,36z
					 M116.8,17.2c-5,0-9,4-9,9s4,9,9,9c5,0,9-4,9-9S121.7,17.2,116.8,17.2z"/>
			</g>
			<path d="M56.6,36c-1.3,0-2.4-1.1-2.4-2.4V22.2c0-0.5-0.4-1-1-1h-2.4c-1.3,0-2.4-1.1-2.4-2.4c0-1.3,1.1-2.4,2.4-2.4h11.5
				c1.3,0,2.4,1.1,2.4,2.4c0,1.3-1.1,2.4-2.4,2.4H60c-0.5,0-1,0.4-1,1v11.4C59,34.9,57.9,36,56.6,36z M50.8,17.2
				c-0.9,0-1.6,0.7-1.6,1.6c0,0.9,0.7,1.6,1.6,1.6h2.4c1,0,1.8,0.8,1.8,1.8v11.4c0,0.9,0.7,1.6,1.6,1.6c0.9,0,1.6-0.7,1.6-1.6V22.2
				c0-1,0.8-1.8,1.8-1.8h2.4c0.9,0,1.6-0.7,1.6-1.6c0-0.9-0.7-1.6-1.6-1.6H50.8z"/>
			<g>
				<g>
					<path class="st5" d="M99.9,9.8c-1.3,0-2.4,1.1-2.4,2.4c0,1.3,1.1,2.4,2.4,2.4c1.3,0,2.4-1.1,2.4-2.4
						C102.4,10.8,101.3,9.8,99.9,9.8z"/>
					<path class="st6" d="M91.9,9.8c-1.3,0-2.4,1.1-2.4,2.4c0,1.3,1.1,2.4,2.4,2.4c1.3,0,2.4-1.1,2.4-2.4
						C94.3,10.8,93.3,9.8,91.9,9.8z"/>
				</g>
				<g>
					<path d="M99.9,36c-1.3,0-2.4-1.1-2.4-2.4V22.2c0-1,0.8-1.8,1.8-1.8h2.2v-3.2h-7.2v16.4c0,1.3-1.1,2.4-2.4,2.4s-2.4-1.1-2.4-2.4
						V22.2c0-0.5-0.4-1-1-1l-0.6,0v0c-1.3-0.1-2.4-1.2-2.4-2.4c0-1.3,1.1-2.4,2.4-2.4h16c1.3,0,2.4,1.1,2.4,2.4
						c0,1.3-1.1,2.4-2.4,2.4h-1.6v12.4C102.4,34.9,101.3,36,99.9,36z M99.3,21.2c-0.5,0-1,0.4-1,1v11.4c0,0.9,0.7,1.6,1.6,1.6
						c0.9,0,1.6-0.7,1.6-1.6V21.2H99.3z M88,20.4l0.5,0c1,0,1.8,0.8,1.8,1.8v11.4c0,0.9,0.7,1.6,1.6,1.6c0.9,0,1.6-0.7,1.6-1.6V17.2
						h-5.6c-0.9,0-1.6,0.7-1.6,1.6C86.3,19.6,87.1,20.4,88,20.4z M102.4,20.4h1.6c0.9,0,1.6-0.7,1.6-1.6c0-0.9-0.7-1.6-1.6-1.6h-1.6
						V20.4z"/>
				</g>
			</g>
		</g>
	</g>
</g>
</svg>
