<?xml version="1.0" encoding="utf-8"?>
<!-- Generator: Adobe Illustrator 26.3.1, SVG Export Plug-In . SVG Version: 6.00 Build 0)  -->
<svg version="1.1" xmlns="http://www.w3.org/2000/svg" xmlns:xlink="http://www.w3.org/1999/xlink" x="0px" y="0px"
	 viewBox="0 0 175 50" style="enable-background:new 0 0 175 50;" xml:space="preserve">
<style type="text/css">
	.st0{fill-rule:evenodd;clip-rule:evenodd;}
	.st1{fill:#010202;stroke:#000000;stroke-width:4.012797e-02;stroke-linecap:round;stroke-linejoin:round;stroke-miterlimit:10;}
	.st2{fill:#231F20;}
	.st3{fill-rule:evenodd;clip-rule:evenodd;fill:#231F20;}
	.st4{fill:#1A1A1A;}
	.st5{fill:#FFCD00;}
	.st6{fill:#F5333F;}
</style>
<g id="Capa_1">
	<g>
		<g>
			<path class="st4" d="M48,17.8c-0.2,0-0.5,0.1-0.8,0.1c-0.3,0.1-0.6,0.2-0.8,0.3c-0.3,0.2-0.5,0.4-0.7,0.6
				c-0.2,0.3-0.4,0.6-0.5,0.9c-0.6,1.3-1.4,3.2-2.6,5.9c-1.2,2.7-2.3,5.4-3.6,8.3l-1.1,0c-1.2-3.1-2.4-6-3.6-8.8
				c-1.2-2.8-1.9-4.8-2.4-5.8c-0.1-0.2-0.2-0.5-0.4-0.6c-0.2-0.2-0.4-0.4-0.7-0.5c-0.2-0.1-0.5-0.2-0.8-0.3
				c-0.3-0.1-0.5-0.1-0.8-0.1l0-0.8l7.6,0v0.8c-0.6,0-1.2,0.1-1.6,0.2c-0.4,0.1-0.7,0.2-0.7,0.5c0,0.1,0,0.2,0.1,0.3
				c0,0.1,0.1,0.2,0.1,0.3c0.3,0.8,0.8,2,1.6,3.8c0.7,1.8,1.7,4.2,3.1,7.5c0.7-1.5,1.4-3.2,2.3-5.2c0.9-2,1.4-3.4,1.7-4.1
				c0.3-0.7,0.4-1.2,0.5-1.5c0-0.3,0.1-0.5,0.1-0.7c0-0.2-0.1-0.3-0.3-0.5c-0.2-0.1-0.4-0.2-0.7-0.3c-0.3-0.1-0.6-0.1-0.9-0.2
				c-0.3,0-0.6-0.1-0.9-0.1V17l6.8,0V17.8z"/>
		</g>
		<g>
			<path class="st4" d="M72.1,28.8l-0.3,5l-15.3,0V33c0.3,0,0.6,0,1-0.1c0.4,0,0.7-0.1,0.8-0.2c0.3-0.1,0.5-0.3,0.6-0.5
				c0.1-0.2,0.2-0.4,0.2-0.7l0-12.1c0-0.3,0-0.5-0.1-0.7c-0.1-0.2-0.3-0.4-0.6-0.5c-0.2-0.1-0.5-0.2-0.9-0.3
				c-0.4-0.1-0.7-0.1-0.9-0.1V17l14.2,0V21h-1c-0.2-0.6-0.5-1.2-1.1-1.9c-0.6-0.7-1.1-1-1.6-1.1c-0.3,0-0.6-0.1-1-0.1
				c-0.4,0-0.8,0-1.3,0l-2.9,0l0,6.7H64c0.7,0,1.1-0.1,1.5-0.2c0.3-0.1,0.6-0.3,0.8-0.6c0.2-0.2,0.3-0.5,0.5-0.9
				c0.1-0.4,0.2-0.7,0.3-1.1h1l0,6.6h-1c0-0.4-0.1-0.8-0.3-1.2c-0.1-0.4-0.3-0.7-0.5-0.9c-0.3-0.3-0.6-0.5-0.9-0.6
				c-0.3-0.1-0.8-0.1-1.4-0.1h-2.1v5c0,0.5,0,0.9,0.1,1.2c0.1,0.3,0.2,0.5,0.5,0.7c0.2,0.1,0.5,0.2,0.9,0.3c0.4,0,0.9,0.1,1.7,0.1
				c0.3,0,0.7,0,1.1,0c0.5,0,0.9,0,1.2,0c0.3,0,0.7-0.1,1-0.2c0.4-0.1,0.6-0.2,0.7-0.3c0.4-0.4,0.8-1,1.2-1.7
				c0.4-0.8,0.7-1.3,0.8-1.7L72.1,28.8z M66.7,13.9c-0.4,0.2-1,0.4-1.8,0.8c-0.8,0.4-1.7,0.8-2.7,1.2l-0.4-0.5
				c0.8-0.7,1.4-1.3,1.9-1.7c0.5-0.4,1-0.9,1.5-1.4c0.3-0.3,0.5-0.5,0.8-0.6c0.2-0.1,0.5-0.2,0.7-0.2c0.3,0,0.6,0.1,0.8,0.3
				c0.2,0.2,0.3,0.4,0.3,0.7c0,0.3-0.1,0.6-0.3,0.8C67.3,13.6,67.1,13.8,66.7,13.9z"/>
		</g>
		<g>
			<path class="st4" d="M96.7,28.8l-0.4,5l-14.4,0V33c0.2,0,0.5,0,0.9-0.1c0.4,0,0.7-0.1,0.8-0.2c0.3-0.1,0.4-0.3,0.6-0.4
				c0.1-0.2,0.2-0.4,0.2-0.8v-12c0-0.3,0-0.5-0.1-0.7c-0.1-0.2-0.3-0.4-0.6-0.5c-0.2-0.1-0.5-0.2-0.8-0.3c-0.4-0.1-0.7-0.1-0.9-0.2
				V17l7.8,0v0.8c-0.2,0-0.6,0.1-0.9,0.1c-0.4,0.1-0.7,0.1-0.8,0.2c-0.3,0.1-0.5,0.3-0.6,0.5c-0.1,0.2-0.2,0.5-0.2,0.7l0,11.3
				c0,0.5,0,0.9,0.1,1.2c0.1,0.3,0.2,0.5,0.4,0.7c0.2,0.1,0.5,0.2,0.9,0.3c0.4,0,0.9,0.1,1.7,0.1c0.3,0,0.7,0,1,0c0.3,0,0.7,0,1-0.1
				c0.3,0,0.6-0.1,0.8-0.2c0.3-0.1,0.5-0.2,0.6-0.3c0.3-0.4,0.8-0.9,1.2-1.7c0.5-0.7,0.8-1.3,1-1.8L96.7,28.8z"/>
		</g>
		<g>
			<path class="st4" d="M121.4,28.8l-0.3,5l-15.3,0V33c0.3,0,0.6,0,1-0.1c0.4,0,0.7-0.1,0.8-0.2c0.3-0.1,0.5-0.3,0.6-0.5
				c0.1-0.2,0.2-0.4,0.2-0.7V19.4c0-0.3,0-0.5-0.1-0.7c-0.1-0.2-0.3-0.4-0.6-0.5c-0.2-0.1-0.5-0.2-0.9-0.3c-0.4-0.1-0.7-0.1-0.9-0.1
				V17l14.2,0V21l-1,0c-0.2-0.6-0.5-1.2-1.1-1.9c-0.6-0.7-1.1-1-1.6-1.1c-0.3,0-0.6-0.1-1-0.1c-0.4,0-0.8,0-1.3,0h-2.9l0,6.7l2.1,0
				c0.7,0,1.2-0.1,1.5-0.2c0.3-0.1,0.6-0.3,0.8-0.6c0.2-0.2,0.4-0.5,0.5-0.9c0.1-0.4,0.2-0.7,0.3-1.1h1v6.6l-1,0
				c0-0.4-0.1-0.8-0.3-1.2c-0.2-0.4-0.3-0.7-0.5-0.9c-0.3-0.3-0.6-0.5-0.9-0.6c-0.3-0.1-0.8-0.1-1.4-0.1l-2.1,0v5
				c0,0.5,0,0.9,0.1,1.2c0.1,0.3,0.2,0.5,0.5,0.7c0.2,0.1,0.5,0.2,0.9,0.3c0.4,0,0.9,0.1,1.7,0.1c0.3,0,0.7,0,1.1,0
				c0.5,0,0.9,0,1.2,0c0.3,0,0.7-0.1,1-0.2c0.3-0.1,0.6-0.2,0.7-0.3c0.4-0.4,0.8-1,1.2-1.7c0.4-0.8,0.7-1.3,0.8-1.7H121.4z"/>
		</g>
		<g>
			<path class="st4" d="M145.7,28.5l-0.6,5.3l-14.8,0v-0.4l11.6-15.5l-4.2,0c-0.5,0-0.9,0-1.2,0c-0.3,0-0.6,0-0.9,0.1
				c-0.6,0.1-1.2,0.5-1.9,1.3c-0.7,0.8-1.3,1.6-1.6,2.4h-0.9l0.6-4.8l13.8,0v0.4l-11.6,15.5h4.4c0.7,0,1.5,0,2.3-0.1
				c0.8-0.1,1.4-0.3,1.6-0.5c0.6-0.5,1.1-1.1,1.6-1.8c0.5-0.7,0.8-1.3,1.1-1.9H145.7z"/>
		</g>
	</g>
</g>
<g id="Capa_2">
</g>
</svg>
