<svg xmlns="http://www.w3.org/2000/svg" width="19" height="19" viewBox="0 0 16 16" style="display: inline-block; fill: rgb(165, 164, 164); vertical-align: middle;"><g class="">    <g id="Enmascarar_grupo_310" data-name="Enmascarar grupo 310" transform="translate(-78 -317)" clippath="url(#clip-path)">
      <path id="Trazado_2107" data-name="Trazado 2107" d="M339,904h-4.014a2,2,0,0,0-1.414.586l-5.28,5.279a1,1,0,0,0,0,1.414l4.427,4.428a1,1,0,0,0,1.414,0l5.279-5.28a2,2,0,0,0,.586-1.414V905A1,1,0,0,0,339,904Zm-1.5,3.5a1,1,0,1,1,1-1A1,1,0,0,1,337.5,907.5Z" transform="translate(-248 -585)"/>
    </g></g></svg>